<?xml version="1.0" standalone="no"?>
<!DOCTYPE svg PUBLIC "-//W3C//DTD SVG 20010904//EN"
 "http://www.w3.org/TR/2001/REC-SVG-20010904/DTD/svg10.dtd">
<svg version="1.0" xmlns="http://www.w3.org/2000/svg"
 width="512.000000pt" height="512.000000pt" viewBox="0 0 512.000000 512.000000"
 preserveAspectRatio="xMidYMid meet">
<metadata>
Created by potrace 1.14, written by Peter Selinger 2001-2017
</metadata>
<g transform="translate(0.000000,512.000000) scale(0.100000,-0.100000)"
fill="#000000" stroke="none">
<path d="M1747 3372 l-1747 -1747 215 -215 c118 -118 218 -215 222 -215 4 0
26 10 48 22 78 41 183 10 230 -69 28 -48 26 -134 -4 -177 l-23 -33 33 -35 c25
-26 182 -182 214 -211 2 -2 17 6 34 19 24 17 45 23 89 23 97 1 163 -56 177
-154 5 -37 2 -54 -19 -95 l-26 -50 63 -63 c34 -35 131 -133 216 -219 l154
-155 1749 1749 1750 1750 -140 139 c-77 76 -176 174 -219 217 l-80 78 -36 -21
c-41 -24 -107 -32 -147 -18 -101 35 -149 175 -90 258 l23 32 -126 126 c-118
118 -127 125 -144 110 -34 -30 -100 -42 -151 -28 -103 27 -155 142 -109 240
11 25 21 48 21 52 1 6 -173 185 -356 365 l-73 73 -1748 -1748z"/>
</g>
</svg>
